# xmcd
#
# Track frame offsets:
#	150
#	16832
#	35291
#	50887
#	69886
#	89105
#	99903
#	116542
#	133595
#	152348
#	168337
#	183773
#	199468
#	210028
#	228004
#	242878
#	256403
#	275397
#	287498
#	305624
#
# Disc length: 4267 seconds
#
# Revision: 1
# Processed by: cddbd v1.5.2PL0 Copyright (c) Steve Scherf et al.
# Submitted via: dBpowerAMP V4.0
#
DISCID=0710a914
DTITLE=Various Artist - Hott Urban Volume 21 Can
DYEAR=2017
DGENRE=Urban
TTITLE0=Chris Brown ft. Usher And Gucci Mane - Party
TTITLE1=Travi$ Scott ft. Kendrick Lamar - Goosebumps
TTITLE2=Rae Sremmurd - Swang
TTITLE3=Weeknd, The - Party Monster
TTITLE4=Nicki Minaj and Mike Will Made-It - Black Barbies
TTITLE5=Big Sean - Moves
TTITLE6=Yo Gotti ft. Kanye West, Big Sean, Quavo And 2 Chainz - Castro
TTITLE7=Sean Paul ft. Tory Lanez - Tek Weh Yuh Heart
TTITLE8=6lack - Prblms
TTITLE9=Swift - Pull Up
TTITLE10=B.O.B. ft. T.I. And ty Dolla $ign - 4 Lit
TTITLE11=Charlie Wilson - I'm Blessed
TTITLE12=Chance The Rapper ft. Knox Fortune - All Night
TTITLE13=Russ - Losin' Control
TTITLE14=Taylor Girls ft. Trinity Taylor - Steal Her Man
TTITLE15=Madeintyo - Skateboard P
TTITLE16=Solange - Cranes In The Sky
TTITLE17=Wizkid - Daddy Yo
TTITLE18=Game, The - Baby You
TTITLE19=Sage The Gemini - Now And Later
EXTD=
EXTT0=
EXTT1=
EXTT2=
EXTT3=
EXTT4=
EXTT5=
EXTT6=
EXTT7=
EXTT8=
EXTT9=
EXTT10=
EXTT11=
EXTT12=
EXTT13=
EXTT14=
EXTT15=
EXTT16=
EXTT17=
EXTT18=
EXTT19=
PLAYORDER=
